<svg id="Layer_2" data-name="Layer 2" xmlns="http://www.w3.org/2000/svg" viewBox="0 0 1080 1080"><defs><style>.cls-1{fill:none;stroke:#75c1e6;stroke-miterlimit:10;stroke-width:26.17px;}</style></defs><path class="cls-1" d="M171,566.43C76.64,701.1,46.42,829.66,86,865.53c39.79,36.08,103.45,3.16,142.92-16.6,57.19-28.61,108.47-68,153.79-112.94,54-53.56,98.25-115.78,147.9-173.23,73.63-85.18,152.89-166.36,245-231.74,22.85-16.23,48.67-29.68,74.36-40.8,37.7-16.32,98.2-40.44,133.78-7.54,36.66,33.91,27.76,94,15.9,136.85-15.42,55.74-44.57,105.9-82.11,149.66"/><path class="cls-1" d="M714.42,378.24c112,79.7,224.67,184.46,280.34,312.86,16.71,38.56,29,84.54,20.63,126.62-4.16,20.76-14.31,39.77-31.33,52.76-24,18.35-56.49,9.4-82.22-.92-46.36-18.59-88.19-49-127.44-79.32-100-77.36-192.28-165.2-270.46-264.71C454.16,462.17,399.83,399.9,338.18,346.82c-50.42-43.42-118.63-99-189.76-92.23-52.61,5-91.37,50.39-89.56,102.31,1.39,40,20.22,78.45,40.48,112.11C168.49,583.92,271.71,662.81,366,755"/><circle class="cls-1" cx="545.2" cy="280.61" r="70.1"/></svg>